name rise36.2859peak64.2979fall75.1499.mot
datacolumns 19
datarows 11
range 10.09662800000000 10.11329900000000
endheader
time	ground_force1_vx	ground_force1_vy	ground_force1_vz	ground_force1_px	ground_force1_py	ground_force1_pz	ground_force2_vx	ground_force2_vy	ground_force2_vz	ground_force2_px	ground_force2_py	ground_force2_pz	ground_torque1_x	ground_torque1_y	ground_torque1_z	ground_torque2_x	ground_torque2_y	ground_torque2_z	
10.09662800000000	-6.79073100000000	42.52275500000000	-11.90263300000000	0.37458600000000	0.00000000000000	0.07543300000000	-47.49171100000000	813.54087300000003	-50.97691200000000	0.18017700000000	0.00000000000000	-0.08179700000000	0.00000000000000	-9.50419900000000	0.00000000000000	0.00000000000000	-24.88405000000000	0.00000000000000	
10.09829200000000	-7.43069900000000	49.87179000000000	-13.38780200000000	0.37737000000000	0.00000000000000	0.07700800000000	-48.32967700000000	811.22682499999996	-50.72239700000000	0.17911600000000	0.00000000000000	-0.08172100000000	0.00000000000000	-10.74113500000000	0.00000000000000	0.00000000000000	-24.81608800000000	0.00000000000000	
10.09997200000000	-7.93593000000000	57.32156600000000	-14.73820400000000	0.37991900000000	0.00000000000000	0.07843600000000	-49.17534300000000	808.74794199999997	-50.44563800000000	0.17804900000000	0.00000000000000	-0.08164200000000	0.00000000000000	-11.88228200000000	0.00000000000000	0.00000000000000	-24.74482300000000	0.00000000000000	
10.10162500000000	-8.28717200000000	64.77671599999999	-15.92222400000000	0.38227600000000	0.00000000000000	0.07974100000000	-50.02749900000000	806.10058200000003	-50.14645400000000	0.17697700000000	0.00000000000000	-0.08156100000000	0.00000000000000	-12.90211900000000	0.00000000000000	0.00000000000000	-24.67014900000000	0.00000000000000	
10.10330000000000	-8.47277700000000	72.16491100000000	-16.91882000000000	0.38447200000000	0.00000000000000	0.08094100000000	-50.88482400000000	803.28111500000000	-49.82469000000000	0.17590100000000	0.00000000000000	-0.08147900000000	0.00000000000000	-13.78341400000000	0.00000000000000	0.00000000000000	-24.59194900000000	0.00000000000000	
10.10497500000000	-8.48859800000000	79.43912000000000	-17.71767100000000	0.38653400000000	0.00000000000000	0.08204900000000	-51.74589600000000	800.28593100000001	-49.48022400000000	0.17482000000000	0.00000000000000	-0.08139400000000	0.00000000000000	-14.51740200000000	0.00000000000000	0.00000000000000	-24.51009400000000	0.00000000000000	
10.10662900000000	-8.33729700000000	86.57741600000000	-18.31843100000000	0.38848400000000	0.00000000000000	0.08308000000000	-52.60918800000000	797.11145599999998	-49.11296300000000	0.17373600000000	0.00000000000000	-0.08130700000000	0.00000000000000	-15.10324600000000	0.00000000000000	0.00000000000000	-24.42444700000000	0.00000000000000	
10.10829600000000	-8.02721100000000	93.58075100000001	-18.72928300000000	0.39033700000000	0.00000000000000	0.08404100000000	-53.47307300000000	793.75415699999996	-48.72285000000000	0.17265000000000	0.00000000000000	-0.08121800000000	0.00000000000000	-15.54694500000000	0.00000000000000	0.00000000000000	-24.33485700000000	0.00000000000000	
10.10996000000000	-7.57095800000000	100.46922300000000	-18.96505800000000	0.39211000000000	0.00000000000000	0.08494200000000	-54.33582600000000	790.21055999999999	-48.30986300000000	0.17156300000000	0.00000000000000	-0.08112600000000	0.00000000000000	-15.85985600000000	0.00000000000000	0.00000000000000	-24.24116700000000	0.00000000000000	
10.11162500000000	-6.98393800000000	107.27743000000000	-19.04512800000000	0.39381200000000	0.00000000000000	0.08579000000000	-55.19563000000000	786.47726100000000	-47.87401500000000	0.17047400000000	0.00000000000000	-0.08103200000000	0.00000000000000	-16.05704600000000	0.00000000000000	0.00000000000000	-24.14320800000000	0.00000000000000	
10.11329900000000	-6.28286400000000	114.04943100000000	-18.99130000000000	0.39545400000000	0.00000000000000	0.08659000000000	-56.05058100000000	782.55094199999996	-47.41536100000000	0.16938600000000	0.00000000000000	-0.08093700000000	0.00000000000000	-16.15561900000000	0.00000000000000	0.00000000000000	-24.04080700000000	0.00000000000000	
